<svg width="49" height="49" viewBox="0 0 49 49" fill="none" xmlns="http://www.w3.org/2000/svg">
<path d="M4.55969 22.3503C5.13123 22.3503 5.68993 22.5198 6.16515 22.8374C6.64037 23.1549 7.01076 23.6062 7.22948 24.1342C7.4482 24.6623 7.50542 25.2433 7.39392 25.8039C7.28242 26.3644 7.0072 26.8793 6.60306 27.2835C6.19892 27.6876 5.68401 27.9628 5.12345 28.0743C4.56289 28.1858 3.98186 28.1286 3.45382 27.9099C2.92579 27.6912 2.47447 27.3208 2.15694 26.8456C1.8394 26.3704 1.66992 25.8116 1.66992 25.2401C1.67191 24.4743 1.97701 23.7404 2.51851 23.1989C3.06002 22.6574 3.79388 22.3523 4.55969 22.3503Z" fill="#FFBA50"/>
<path d="M9.1216 39.1249C9.12206 39.6273 8.95849 40.1161 8.65574 40.517C8.35299 40.918 7.92762 41.2091 7.44428 41.3462C7.31403 41.3845 7.19968 41.464 7.11837 41.5727C7.03706 41.6814 6.99315 41.8135 6.99323 41.9493V47.0742C6.99323 47.5741 6.79467 48.0534 6.44124 48.4069C6.0878 48.7603 5.60844 48.9589 5.1086 48.9589H4.013C3.51317 48.9589 3.03381 48.7603 2.68037 48.4069C2.32693 48.0534 2.12838 47.5741 2.12838 47.0742V41.9493C2.12838 41.8134 2.08429 41.6811 2.00273 41.5724C1.92118 41.4636 1.80655 41.3843 1.67606 41.3462C1.19296 41.2089 0.76787 40.9177 0.465364 40.5167C0.162859 40.1158 -0.000535175 39.6271 1.31693e-06 39.1249V36.2615C0.0198623 35.0648 0.509174 33.9239 1.36245 33.0847C2.21572 32.2455 3.36461 31.7751 4.56143 31.7751C5.75825 31.7751 6.90714 32.2455 7.76041 33.0847C8.61369 33.9239 9.103 35.0648 9.12286 36.2615L9.1216 39.1249Z" fill="#FFBA50"/>
<path d="M23.6559 16.1487H18.3036C17.2627 16.1487 16.4189 16.9925 16.4189 18.0333V47.0742C16.4189 48.115 17.2627 48.9588 18.3036 48.9588H23.6559C24.6968 48.9588 25.5405 48.115 25.5405 47.0742V18.0333C25.5405 16.9925 24.6968 16.1487 23.6559 16.1487Z" fill="#FFBA50"/>
<path d="M48.9877 8.88917C48.9795 8.91151 48.9643 8.93062 48.9444 8.94373C48.9245 8.95684 48.901 8.96325 48.8772 8.96204H45.9007C45.7341 8.96204 45.5743 9.02822 45.4565 9.14604C45.3387 9.26385 45.2725 9.42364 45.2725 9.59025V47.0743C45.2725 47.5741 45.0739 48.0535 44.7205 48.4069C44.3671 48.7603 43.8877 48.9589 43.3879 48.9589H38.0368C37.5369 48.9589 37.0576 48.7603 36.7041 48.4069C36.3507 48.0535 36.1521 47.5741 36.1521 47.0743V9.58648C36.1521 9.41987 36.086 9.26008 35.9682 9.14227C35.8503 9.02446 35.6906 8.95827 35.5239 8.95827H32.5475C32.5236 8.95989 32.4999 8.95364 32.4799 8.94048C32.4599 8.92732 32.4448 8.90797 32.4369 8.8854C32.4265 8.86494 32.423 8.84167 32.4268 8.81904C32.4307 8.79641 32.4417 8.77562 32.4583 8.75976L40.625 0H40.8009L48.9676 8.75976C48.9842 8.77647 48.995 8.79798 48.9986 8.82121C49.0022 8.84444 48.9984 8.86822 48.9877 8.88917Z" fill="white"/>
</svg>
