<svg width="45" height="46" viewBox="0 0 45 46" fill="none" xmlns="http://www.w3.org/2000/svg">
<path d="M40.2253 34.2187C39.8765 34.0422 39.375 33.8216 38.7209 33.5568C37.6308 33.1597 36.8677 32.7847 36.4317 32.4317L35.9084 32.0345C34.6439 31.2403 33.8154 30.6667 33.423 30.3137C32.8997 29.8283 32.431 29.3098 32.0167 28.7583C31.6025 28.2067 31.319 27.7655 31.1664 27.4345C31.0138 27.1036 30.5887 26.3204 29.891 25.0849L29.3023 24.0259C28.6919 23.0552 28.343 22.3712 28.2558 21.9741C28.8663 22.5918 29.4113 23.2096 29.891 23.8273C29.9346 23.9156 30.0436 24.0921 30.218 24.3568C30.4797 24.8863 30.7413 25.2393 31.0029 25.4158C31.0029 25.46 31.0356 25.46 31.101 25.4158L31.1991 25.3496C31.0683 24.6436 31.0574 23.8935 31.1664 23.0993C31.2754 22.305 31.4608 21.6432 31.7224 21.1137C31.766 21.0254 31.7442 20.9372 31.657 20.8489C30.8285 20.4959 30.109 20.0988 29.4985 19.6576C29.1061 19.4369 28.6047 19.0839 27.9942 18.5986L27.1439 17.9367L26.686 17.6058C25.8576 17.0763 25.2689 16.5247 24.9201 15.9511C25.1381 16.1276 25.6177 16.4144 26.359 16.8115L27.0131 17.2086L27.5363 17.5396C27.8416 17.8043 28.1032 18.0029 28.3212 18.1353C28.3648 18.1353 28.4084 18.1022 28.452 18.036C28.4956 17.9698 28.5174 17.9146 28.5174 17.8705L28.2558 17.1424C27.907 16.1276 27.7544 15.2451 27.798 14.495C27.6672 14.2302 27.5363 13.9875 27.4055 13.7669C26.8387 13.2815 26.3808 12.8182 26.032 12.377C25.814 12.1122 25.5959 11.7592 25.3779 11.318C25.1599 10.965 25.0073 10.7002 24.9201 10.5237L24.5276 9.99425C24.048 9.33237 23.6773 8.75875 23.4157 8.27338C22.936 7.43501 22.5872 6.53046 22.3692 5.55971C21.1047 5.69209 19.9927 5.73621 19.0334 5.69209C18.0741 5.64796 17.0058 5.49353 15.8285 5.22878C15.6977 5.18465 15.2616 4.94197 14.5203 4.50072C13.2994 3.7506 12.3837 3.24317 11.7733 2.97842C11.1628 2.71367 10.3997 2.44892 9.48401 2.18417L8.76453 1.91942C8.28488 1.78705 7.71802 1.65468 7.06395 1.5223L6.34448 1.38993C4.51308 1.03693 2.70349 0.573621 0.915698 0C0.392442 0.75012 0.0872093 1.65468 0 2.71367C0 3.33141 0.065407 4.23597 0.196221 5.42734L0.327035 6.42014C0.414244 7.21439 0.479651 7.76595 0.523256 8.07482C0.65407 8.56019 0.9375 9.24413 1.37355 10.1266C1.72238 10.7885 1.96221 11.318 2.09302 11.7151C2.18023 11.9799 2.28924 12.4211 2.42006 13.0388C2.55087 13.5242 2.65988 13.8772 2.74709 14.0978L3.07413 14.9583C3.29215 15.576 3.42297 16.0393 3.46657 16.3482C3.7282 16.3923 3.92442 16.3703 4.05523 16.282C4.18605 16.1938 4.31686 16.0393 4.44767 15.8187C4.7093 15.4216 4.97093 15.223 5.23256 15.223H5.29797C6.5625 15.3113 7.4564 15.3333 7.97965 15.2892C8.85174 15.201 9.53852 14.9693 10.04 14.5942C10.5414 14.2192 11.0756 13.6125 11.6424 12.7741C12.0785 12.1564 12.4491 11.5165 12.7544 10.8547C12.798 11.0753 12.7762 11.34 12.689 11.6489C12.6453 11.8254 12.5254 12.1343 12.3292 12.5755C12.133 13.0168 11.9913 13.3698 11.9041 13.6345C11.8169 13.8993 11.7297 14.2743 11.6424 14.7597C11.5552 15.2451 11.4898 15.576 11.4462 15.7525C11.359 16.0173 11.2173 16.1938 11.0211 16.282C10.8249 16.3703 10.3561 16.3703 9.61483 16.282L7.71802 16.0173C6.84593 15.8408 6.25727 15.7635 5.95203 15.7856C5.6468 15.8077 5.42878 15.8849 5.29797 16.0173C4.94913 16.3261 4.62209 16.6791 4.31686 17.0763C4.22965 17.1645 4.18605 17.2859 4.18605 17.4403C4.18605 17.5947 4.29506 17.8043 4.51308 18.0691L4.6439 18.3338C4.81831 18.5544 5.12355 18.9626 5.55959 19.5583C5.99564 20.154 6.23547 20.518 6.27907 20.6504C6.36628 20.9592 6.42078 21.4446 6.44259 22.1065C6.46439 22.7683 6.5407 23.2537 6.67151 23.5626C6.71512 23.695 6.88953 23.9156 7.19477 24.2245L7.5218 24.6878C7.69622 24.9084 7.93605 25.2835 8.24128 25.813C8.76453 26.7837 9.20058 27.4235 9.54942 27.7324C9.63663 27.7324 9.73474 27.7213 9.84375 27.6993C9.95276 27.6772 9.98547 27.6441 9.94186 27.6C9.59302 26.6293 9.44041 25.46 9.48401 24.0921V23.695C9.52762 22.5477 9.50581 21.7314 9.4186 21.246C9.4186 21.0254 9.32049 20.7055 9.12427 20.2863C8.92805 19.8671 8.85174 19.5472 8.89535 19.3266C9.46221 19.9885 9.83285 20.7165 10.0073 21.5108C10.2253 22.3933 10.2471 23.3861 10.0727 24.4892C10.1163 24.5333 10.3343 24.6878 10.7267 24.9525L11.577 25.6144L12.6235 26.2763C13.234 26.6734 13.6047 26.9381 13.7355 27.0705C14.0843 27.3794 14.4549 27.9309 14.8474 28.7252C15.109 29.1664 15.3052 29.4753 15.436 29.6518C16.0901 30.5343 16.5916 31.152 16.9404 31.505C17.9433 32.5199 18.6192 33.3583 18.968 34.0201C19.0116 34.0643 19.0661 34.0974 19.1315 34.1194C19.1969 34.1415 19.2515 34.1305 19.2951 34.0863C19.6875 33.4686 20.2108 33.0053 20.8648 32.6964C21.6933 32.2993 22.2602 32.1228 22.5654 32.1669C22.7834 32.1669 23.0015 32.2552 23.2195 32.4317L23.6119 32.6302L24.0044 32.6964C24.048 32.6523 24.048 32.5861 24.0044 32.4978C23.8299 32.0125 22.8924 31.2844 21.1919 30.3137C20.9738 30.2254 20.6468 30.1151 20.2108 29.9827C19.5131 29.8062 19.0552 29.6077 18.8372 29.3871C20.0145 29.4753 21.3663 29.8724 22.8924 30.5784C23.8081 30.9755 25.0945 31.6815 26.7515 32.6964L27.1439 32.895C27.3183 33.0273 27.8634 33.4245 28.7791 34.0863L29.4331 34.6158C29.782 34.7482 30.2507 34.8365 30.8394 34.8806C31.4281 34.9247 31.8968 34.9026 32.2456 34.8144C32.3765 34.8144 32.5509 34.7482 32.7689 34.6158C33.0741 34.3952 33.3576 34.2849 33.6192 34.2849L34.077 34.6158C34.3387 34.7923 34.5349 34.9468 34.6657 35.0791C34.8401 35.2556 34.9491 35.4763 34.9927 35.741C34.4695 35.388 34.0116 35.2115 33.6192 35.2115C33.3576 35.1674 33.0087 35.2336 32.5727 35.4101C31.7442 35.6307 30.9593 35.6969 30.218 35.6086C30.3052 35.9616 30.6105 36.4249 31.1337 36.9986C31.4826 37.4839 31.7442 37.8369 31.9186 38.0576C32.093 38.4547 32.2892 38.9621 32.5073 39.5799L32.7689 40.1755L33.0305 41.1683L33.75 42.6245L34.4695 44.0144C34.7747 44.588 35.0363 45.0072 35.2544 45.2719C35.6032 45.6691 35.9956 45.9118 36.4317 46C36.1701 45.2058 36.1047 44.4556 36.2355 43.7496C36.3227 43.3084 36.5407 42.7348 36.8895 42.0288C37.1512 41.411 37.3147 40.9588 37.3801 40.6719C37.4455 40.3851 37.4673 40.0211 37.4455 39.5799C37.4237 39.1386 37.4346 38.8077 37.4782 38.5871C37.7398 38.5871 38.0887 38.6643 38.5247 38.8187C38.9608 38.9731 39.266 39.0724 39.4404 39.1166C39.702 38.9842 40.0945 38.7635 40.6177 38.4547C41.4462 37.9252 42.1221 37.6384 42.6454 37.5942C42.9506 37.5942 43.4956 37.6604 44.2805 37.7928L45 37.9252C43.8663 36.4249 42.2747 35.1894 40.2253 34.2187ZM7.39099 6.1554C7.26017 6.28777 6.98765 6.37602 6.5734 6.42014C6.15916 6.46427 5.88663 6.42014 5.75581 6.28777C5.40698 6.06715 5.17805 5.72518 5.06904 5.26187C4.96003 4.79856 5.03634 4.47866 5.29797 4.30216C5.42878 4.21391 5.55959 4.16978 5.69041 4.16978C5.82122 4.16978 5.99564 4.19185 6.21366 4.23597C6.30087 4.23597 6.43169 4.2801 6.6061 4.36835L7.19477 4.69928C7.36919 4.78753 7.5 4.99712 7.58721 5.32806C7.67442 5.65899 7.60901 5.93477 7.39099 6.1554Z" fill="white"/>
</svg>
