<svg width="49" height="49" viewBox="0 0 49 49" fill="none" xmlns="http://www.w3.org/2000/svg">
<path d="M19.1229 42.3345C19.1214 40.8918 19.5969 39.4889 20.4757 38.3432C21.3545 37.1975 22.5876 36.3731 23.9838 35.9976C25.3799 35.6221 26.8612 35.7166 28.1981 36.2664C29.535 36.8162 30.6528 37.7906 31.3783 39.0386C36.3741 36.8397 38.2458 33.3887 38.2458 26.8302V19.6755C38.2458 10.1549 32.8651 3.57736 24.5012 3.57736C16.1373 3.57736 10.7566 10.1573 10.7566 19.6755V28.0227C10.756 28.4969 10.5669 28.9515 10.2308 29.2868C9.89476 29.6221 9.43913 29.8107 8.96385 29.8114H6.57349C4.83109 29.8095 3.16056 29.1182 1.92827 27.8892C0.695982 26.6601 0.00253061 24.9937 0 23.2552L0 20.8703C0.0018969 19.1313 0.694992 17.4639 1.92728 16.234C3.15957 15.0041 4.83046 14.312 6.57349 14.3095H7.71608C9.52559 5.79294 15.719 0 24.5012 0C33.2834 0 39.4744 5.79294 41.2839 14.3095H42.4265C44.1691 14.312 45.8397 15.0038 47.0719 16.2332C48.3041 17.4626 48.9975 19.1293 49 20.868V23.2529C48.9981 24.9917 48.3049 26.6588 47.0726 27.8883C45.8402 29.1179 44.1693 29.8095 42.4265 29.8114H41.6879C41.5956 32.6361 40.6458 35.3662 38.964 37.6404C37.2822 39.9146 34.9478 41.6255 32.2699 42.5468C32.2417 44.2862 31.522 45.9432 30.2693 47.1532C29.0166 48.3633 27.3334 49.0273 25.59 48.9991C23.8466 48.971 22.1858 48.253 20.973 47.0032C19.7602 45.7533 19.0947 44.0739 19.1229 42.3345ZM22.7084 42.3345C22.7084 42.9241 22.8837 43.5005 23.212 43.9907C23.5403 44.481 24.007 44.8631 24.5529 45.0887C25.0989 45.3144 25.6997 45.3734 26.2793 45.2584C26.8589 45.1433 27.3913 44.8594 27.8092 44.4425C28.227 44.0256 28.5116 43.4944 28.6269 42.9161C28.7422 42.3378 28.683 41.7384 28.4569 41.1937C28.2307 40.649 27.8478 40.1834 27.3564 39.8558C26.865 39.5282 26.2873 39.3534 25.6964 39.3534C24.9041 39.354 24.1445 39.6683 23.5843 40.2272C23.0241 40.7862 22.7091 41.5441 22.7084 42.3345ZM41.8313 26.2364H42.4265C43.2192 26.2364 43.9794 25.9224 44.5402 25.3634C45.1009 24.8044 45.4162 24.0461 45.4168 23.2552V20.8703C45.4168 20.0795 45.1021 19.321 44.5418 18.7615C43.9816 18.2021 43.2216 17.8874 42.4289 17.8868H41.8313V26.2364ZM3.58554 20.8703V23.2552C3.58681 24.0453 3.90209 24.8026 4.46223 25.361C5.02238 25.9194 5.78165 26.2334 6.57349 26.234H7.17108V17.8868H6.57349C5.78082 17.8874 5.02083 18.2021 4.46055 18.7615C3.90027 19.321 3.58554 20.0795 3.58554 20.8703Z" fill="white"/>
</svg>
