<svg width="41" height="41" viewBox="0 0 41 41" fill="none" xmlns="http://www.w3.org/2000/svg">
<path d="M0 11.3889H9.11111V41H0V11.3889ZM4.55556 0C1.82222 0 0 2.27778 0 4.78333C0 7.06111 1.82222 9.11111 4.55556 9.11111C7.51667 9.11111 9.11111 7.06111 9.11111 4.55556C9.11111 2.05 7.28889 0 4.55556 0ZM30.9778 11.8444C26.1944 11.8444 23.4611 14.5778 22.3222 16.4H22.0944L21.6389 12.5278H13.4389C13.4389 15.0333 13.6667 17.9944 13.6667 21.4111V41H22.7778V24.8278C22.7778 23.9167 22.7778 23.2333 23.0056 22.55C23.6889 20.9556 24.8278 18.9056 27.3333 18.9056C30.5222 18.9056 31.8889 21.6389 31.8889 25.2833V41H41V24.1444C41 15.7167 36.6722 11.8444 30.9778 11.8444Z" fill="white"/>
</svg>
