<svg width="40" height="40" viewBox="0 0 40 40" fill="none" xmlns="http://www.w3.org/2000/svg">
<path d="M5.71429 0C2.5558 0 0 2.5558 0 5.71429C0 8.87277 2.5558 11.4286 5.71429 11.4286C8.87277 11.4286 11.4286 8.87277 11.4286 5.71429C11.4286 2.5558 8.87277 0 5.71429 0ZM20 0C16.8415 0 14.2857 2.5558 14.2857 5.71429C14.2857 8.87277 16.8415 11.4286 20 11.4286C23.1585 11.4286 25.7143 8.87277 25.7143 5.71429C25.7143 2.5558 23.1585 0 20 0ZM34.2857 0C31.1272 0 28.5714 2.5558 28.5714 5.71429C28.5714 8.87277 31.1272 11.4286 34.2857 11.4286C37.4442 11.4286 40 8.87277 40 5.71429C40 2.5558 37.4442 0 34.2857 0ZM20 14.2857C16.8415 14.2857 14.2857 16.8415 14.2857 20C14.2857 23.1585 16.8415 25.7143 20 25.7143C23.1585 25.7143 25.7143 23.1585 25.7143 20C25.7143 16.8415 23.1585 14.2857 20 14.2857ZM34.2857 14.2857C31.1272 14.2857 28.5714 16.8415 28.5714 20C28.5714 23.1585 31.1272 25.7143 34.2857 25.7143C37.4442 25.7143 40 23.1585 40 20C40 16.8415 37.4442 14.2857 34.2857 14.2857ZM5.71429 28.5714C2.5558 28.5714 0 31.1272 0 34.2857C0 37.4442 2.5558 40 5.71429 40C8.87277 40 11.4286 37.4442 11.4286 34.2857C11.4286 31.1272 8.87277 28.5714 5.71429 28.5714ZM34.2857 28.5714C31.1272 28.5714 28.5714 31.1272 28.5714 34.2857C28.5714 37.4442 31.1272 40 34.2857 40C37.4442 40 40 37.4442 40 34.2857C40 31.1272 37.4442 28.5714 34.2857 28.5714Z" fill="white"/>
</svg>
