<svg width="41" height="41" viewBox="0 0 41 41" fill="none" xmlns="http://www.w3.org/2000/svg">
<path d="M24.5082 5.4847C20.8412 4.2906 16.8789 4.3661 13.2601 5.69901C9.64118 7.03191 6.57657 9.54457 4.56019 12.832C2.5438 16.1194 1.69312 19.99 2.14527 23.8199C2.59743 27.6498 4.32607 31.216 7.05255 33.9434C9.77904 36.6709 13.3445 38.4008 17.1743 38.8544C21.0041 39.3079 24.875 38.4586 28.1631 36.4434C31.4513 34.4282 33.965 31.3645 35.2992 27.7461C36.6334 24.1277 36.7103 20.1655 35.5176 16.498" stroke="white" stroke-width="3" stroke-linejoin="round"/>
<path d="M34.2635 30.0553C36.2246 33.4119 36.8919 36.002 35.8241 37.1134C33.5459 39.4802 24.2413 34.2154 15.041 25.3521C5.84081 16.4889 0.229764 7.39436 2.50669 5.02757C3.68018 3.80915 6.72092 4.61525 10.6524 6.89747" stroke="white" stroke-width="3" stroke-linecap="round" stroke-linejoin="round"/>
<path d="M31.0732 17.8579C35.4523 17.8579 39.0022 14.308 39.0022 9.92895C39.0022 5.54991 35.4523 2 31.0732 2C26.6942 2 23.1443 5.54991 23.1443 9.92895C23.1443 14.308 26.6942 17.8579 31.0732 17.8579Z" stroke="#F1D17C" stroke-width="3" stroke-linecap="round" stroke-linejoin="round"/>
</svg>
