<svg width="59" height="57" viewBox="0 0 59 57" fill="none" xmlns="http://www.w3.org/2000/svg">
<path d="M41.0316 4.6073C40.7779 4.6073 40.5664 4.40126 40.5664 4.14659C40.5664 3.89192 40.7679 3.68577 41.0226 3.68577H41.0316C41.2863 3.68577 41.4923 3.89192 41.4923 4.14659C41.4923 4.40126 41.2863 4.6073 41.0316 4.6073ZM18.9167 6.45024C18.663 6.45024 18.4515 6.2442 18.4515 5.98953C18.4515 5.73487 18.6531 5.52883 18.9078 5.52883H18.9167C19.1714 5.52883 19.3775 5.73487 19.3775 5.98953C19.3775 6.2442 19.1714 6.45024 18.9167 6.45024ZM29.0528 0.921529C28.799 0.921529 28.5876 0.71549 28.5876 0.460822C28.5876 0.206154 28.7891 0 29.0438 0H29.0528C29.3074 0 29.5135 0.206154 29.5135 0.460822C29.5135 0.71549 29.3074 0.921529 29.0528 0.921529ZM50.2462 0.921529C49.9925 0.921529 49.781 0.71549 49.781 0.460822C49.781 0.206154 49.9825 0 50.2372 0H50.2462C50.5008 0 50.7069 0.206154 50.7069 0.460822C50.7069 0.71549 50.5008 0.921529 50.2462 0.921529ZM56.6964 17.5077C56.4426 17.5077 56.2311 17.3016 56.2311 17.047C56.2311 16.7923 56.4327 16.5863 56.6875 16.5863H56.6964C56.951 16.5863 57.1571 16.7923 57.1571 17.047C57.1571 17.3016 56.951 17.5077 56.6964 17.5077ZM52.089 23.9579C51.8353 23.9579 51.6238 23.7519 51.6238 23.4972C51.6238 23.2425 51.8254 23.0365 52.08 23.0365H52.089C52.3437 23.0365 52.5497 23.2425 52.5497 23.4972C52.5497 23.7519 52.3437 23.9579 52.089 23.9579ZM4.17355 26.7223C3.9198 26.7223 3.70835 26.5161 3.70835 26.2614C3.70835 26.0068 3.90989 25.8007 4.16456 25.8007H4.17355C4.42822 25.8007 4.63425 26.0068 4.63425 26.2614C4.63425 26.5161 4.42822 26.7223 4.17355 26.7223ZM7.85932 36.8582C7.60557 36.8582 7.39412 36.6521 7.39412 36.3975C7.39412 36.1428 7.59566 35.9367 7.85033 35.9367H7.85932C8.11399 35.9367 8.32002 36.1428 8.32002 36.3975C8.32002 36.6521 8.11399 36.8582 7.85932 36.8582ZM0.487662 44.2298C0.233916 44.2298 0.0224609 44.0238 0.0224609 43.7691C0.0224609 43.5144 0.224006 43.3084 0.478674 43.3084H0.487662C0.74233 43.3084 0.948369 43.5144 0.948369 43.7691C0.948369 44.0238 0.74233 44.2298 0.487662 44.2298ZM53.0104 45.1513C52.7568 45.1513 52.5452 44.9453 52.5452 44.6905C52.5452 44.436 52.7469 44.2298 53.0014 44.2298H53.0104C53.0709 44.2298 53.1309 44.2417 53.1868 44.2648C53.2427 44.288 53.2935 44.3219 53.3363 44.3647C53.3791 44.4075 53.413 44.4583 53.4361 44.5142C53.4593 44.5701 53.4712 44.63 53.4711 44.6905C53.4712 44.751 53.4593 44.811 53.4362 44.8669C53.413 44.9228 53.3791 44.9736 53.3363 45.0164C53.2935 45.0592 53.2427 45.0932 53.1868 45.1163C53.1309 45.1395 53.071 45.1514 53.0104 45.1513ZM14.3096 47.9157C14.0558 47.9157 13.8444 47.7095 13.8444 47.4549C13.8444 47.2002 14.0459 46.9942 14.3006 46.9942H14.3096C14.5642 46.9942 14.7703 47.2002 14.7703 47.4549C14.7703 47.7095 14.5642 47.9157 14.3096 47.9157ZM22.68 56.2088C22.4253 56.2088 22.2148 56.0026 22.2148 55.7481C22.2148 55.4934 22.4163 55.2874 22.671 55.2874H22.68C22.7405 55.2873 22.8004 55.2992 22.8563 55.3223C22.9122 55.3455 22.963 55.3794 23.0058 55.4222C23.0486 55.465 23.0825 55.5158 23.1057 55.5717C23.1288 55.6276 23.1407 55.6875 23.1407 55.7481C23.1407 55.8086 23.1288 55.8685 23.1057 55.9244C23.0825 55.9803 23.0486 56.0311 23.0058 56.0739C22.963 56.1167 22.9122 56.1506 22.8563 56.1738C22.8004 56.1969 22.7405 56.2088 22.68 56.2088ZM30.8956 51.6014C30.642 51.6014 30.4304 51.3953 30.4304 51.1406C30.4304 50.886 30.632 50.6799 30.8866 50.6799H30.8956C31.1503 50.6799 31.3563 50.886 31.3563 51.1406C31.3563 51.3953 31.1503 51.6014 30.8956 51.6014ZM58.5393 55.2874C58.2855 55.2874 58.0741 55.0812 58.0741 54.8265C58.0741 54.5719 58.2756 54.3658 58.5303 54.3658H58.5393C58.7939 54.3658 59 54.5719 59 54.8265C59 55.0812 58.7939 55.2874 58.5393 55.2874ZM42.8745 53.4443C42.6208 53.4443 42.4093 53.2383 42.4093 52.9836C42.4093 52.7289 42.6109 52.5229 42.8656 52.5229H42.8745C43.1291 52.5229 43.3353 52.7289 43.3353 52.9836C43.3353 53.2383 43.1291 53.4443 42.8745 53.4443ZM41.0316 50.6799C40.7779 50.6799 40.5664 50.4739 40.5664 50.2192C40.5664 49.9646 40.7679 49.7585 41.0226 49.7585H41.0316C41.2863 49.7585 41.4923 49.9646 41.4923 50.2192C41.4923 50.4739 41.2863 50.6799 41.0316 50.6799Z" fill="white"/>
<path d="M43.3082 55.2875C40.7679 55.2875 38.7009 53.2204 38.7009 50.6802C38.7009 48.14 40.768 46.073 43.3082 46.073C45.8485 46.073 47.9154 48.14 47.9154 50.6802C47.9154 53.2204 45.8486 55.2875 43.3082 55.2875ZM43.3082 46.9943C41.2754 46.9943 39.6225 48.6473 39.6225 50.6801C39.6225 52.7128 41.2755 54.3658 43.3082 54.3658C45.3402 54.3658 46.994 52.7128 46.994 50.6801C46.994 48.6473 45.3402 46.9943 43.3082 46.9943Z" fill="white"/>
<path d="M44.6905 50.6799C43.9283 50.6799 43.3083 50.0599 43.3083 49.2977C43.3083 48.5356 43.9283 47.9156 44.6905 47.9156C45.4526 47.9156 46.0726 48.5356 46.0726 49.2977C46.0726 50.0599 45.4527 50.6799 44.6905 50.6799ZM44.6905 48.837C44.5683 48.8371 44.4512 48.8857 44.3648 48.972C44.2784 49.0584 44.2298 49.1756 44.2298 49.2977C44.2298 49.4199 44.2784 49.5371 44.3648 49.6235C44.4512 49.7098 44.5683 49.7584 44.6905 49.7585C44.9442 49.7585 45.1512 49.5515 45.1512 49.2977C45.1512 49.044 44.9442 48.837 44.6905 48.837ZM52.0621 11.9789C52.0016 11.9789 51.9417 11.967 51.8858 11.9439C51.8299 11.9208 51.779 11.8868 51.7363 11.844C51.6935 11.8013 51.6595 11.7504 51.6364 11.6945C51.6133 11.6386 51.6014 11.5787 51.6014 11.5182V7.8324C51.6014 7.57774 51.8075 7.37158 52.0621 7.37158C52.3168 7.37158 52.5228 7.57774 52.5228 7.8324V11.5182C52.5229 11.5787 52.511 11.6386 52.4879 11.6945C52.4647 11.7504 52.4308 11.8013 52.388 11.844C52.3452 11.8868 52.2944 11.9208 52.2385 11.9439C52.1826 11.967 52.1226 11.9789 52.0621 11.9789Z" fill="white"/>
<path d="M52.9835 10.136H51.1406C50.886 10.136 50.6799 9.92997 50.6799 9.67531C50.6799 9.42064 50.886 9.2146 51.1406 9.2146H52.9835C53.2382 9.2146 53.4443 9.42064 53.4443 9.67531C53.4443 9.92997 53.2382 10.136 52.9835 10.136ZM54.8264 36.8582C54.7659 36.8582 54.706 36.8463 54.65 36.8232C54.5941 36.8001 54.5433 36.7661 54.5005 36.7233C54.4577 36.6805 54.4238 36.6297 54.4007 36.5738C54.3775 36.5179 54.3657 36.458 54.3657 36.3975V32.7117C54.3657 32.457 54.5717 32.251 54.8264 32.251C55.0811 32.251 55.2871 32.457 55.2871 32.7117V36.3975C55.2872 36.458 55.2753 36.5179 55.2521 36.5738C55.229 36.6297 55.1951 36.6805 55.1523 36.7233C55.1095 36.7661 55.0587 36.8001 55.0028 36.8232C54.9469 36.8463 54.8869 36.8582 54.8264 36.8582Z" fill="white"/>
<path d="M55.7479 35.0154H53.905C53.6504 35.0154 53.4443 34.8094 53.4443 34.5547C53.4443 34.3 53.6504 34.094 53.905 34.094H55.7479C56.0025 34.094 56.2087 34.3 56.2087 34.5547C56.2087 34.8094 56.0025 35.0154 55.7479 35.0154Z" fill="white"/>
<path d="M7.83229 55.2872C7.77177 55.2873 7.71184 55.2754 7.65592 55.2522C7.60001 55.2291 7.5492 55.1951 7.50641 55.1523C7.46362 55.1095 7.42969 55.0587 7.40656 55.0028C7.38342 54.9469 7.37154 54.8869 7.37158 54.8264V51.1406C7.37158 50.886 7.57762 50.6799 7.83229 50.6799C8.08696 50.6799 8.293 50.886 8.293 51.1406V54.8264C8.29304 54.8869 8.28116 54.9469 8.25802 55.0028C8.23489 55.0587 8.20095 55.1095 8.15817 55.1523C8.11538 55.1951 8.06457 55.2291 8.00866 55.2522C7.95274 55.2754 7.89281 55.2873 7.83229 55.2872Z" fill="white"/>
<path d="M8.75373 53.4444H6.9109C6.65623 53.4444 6.4502 53.2383 6.4502 52.9837C6.4502 52.729 6.65623 52.5229 6.9109 52.5229H8.75385C9.00851 52.5229 9.21455 52.729 9.21455 52.9837C9.21455 53.2383 9.0084 53.4444 8.75373 53.4444Z" fill="white"/>
<path d="M1.38221 18.4293C1.32168 18.4294 1.26175 18.4175 1.20582 18.3943C1.1499 18.3712 1.09909 18.3372 1.05629 18.2944C1.01349 18.2516 0.979551 18.2008 0.956403 18.1449C0.933255 18.089 0.921356 18.029 0.921387 17.9685V14.2827C0.921356 14.2222 0.933256 14.1623 0.956405 14.1064C0.979554 14.0504 1.0135 13.9996 1.0563 13.9569C1.0991 13.9141 1.14991 13.8801 1.20583 13.857C1.26176 13.8339 1.32169 13.822 1.38221 13.822C1.44272 13.822 1.50264 13.8339 1.55855 13.857C1.61446 13.8802 1.66526 13.9141 1.70805 13.9569C1.75083 13.9997 1.78477 14.0505 1.80791 14.1064C1.83105 14.1623 1.84295 14.2222 1.84292 14.2827V17.9685C1.84295 18.029 1.83105 18.0889 1.80791 18.1449C1.78477 18.2008 1.75084 18.2516 1.70805 18.2944C1.66527 18.3372 1.61447 18.3711 1.55856 18.3943C1.50265 18.4174 1.44272 18.4293 1.38221 18.4293Z" fill="white"/>
<path d="M2.30365 16.5862H0.460707C0.206039 16.5862 0 16.3802 0 16.1255C0 15.8708 0.206039 15.6648 0.460707 15.6648H2.30365C2.5582 15.6648 2.76436 15.8708 2.76436 16.1255C2.76436 16.3802 2.55832 16.5862 2.30365 16.5862Z" fill="white"/>
<path d="M8.75374 8.29312C7.8926 8.29312 7.08273 7.95745 6.47349 7.34832C5.86424 6.73907 5.52856 5.92921 5.52856 5.06806C5.52856 4.20599 5.86424 3.39613 6.47349 2.7878C7.69186 1.56943 9.81551 1.56943 11.0339 2.7878C11.6431 3.39613 11.9787 4.20599 11.9787 5.06806C11.9787 5.92921 11.6431 6.73907 11.0339 7.34832C10.4248 7.95745 9.61489 8.29312 8.75374 8.29312ZM8.75374 2.76441C8.13828 2.76441 7.55957 3.00375 7.12502 3.43922C6.68955 3.87389 6.45021 4.45248 6.45021 5.06806C6.44943 5.37067 6.50867 5.67043 6.6245 5.95C6.74033 6.22957 6.91045 6.48339 7.12502 6.69678C7.99516 7.56784 9.51233 7.56784 10.3826 6.69678C10.8171 6.26131 11.0574 5.6826 11.0574 5.06806C11.0581 4.76544 10.9989 4.46566 10.8831 4.18608C10.7672 3.9065 10.5971 3.65265 10.3826 3.43922C10.1692 3.22465 9.91533 3.05452 9.63574 2.93869C9.35616 2.82286 9.05637 2.76363 8.75374 2.76441Z" fill="white"/>
<path d="M6.3727 8.21224C6.1586 8.21224 5.97053 8.14828 5.822 7.99986C5.7792 7.95709 5.74525 7.9063 5.72209 7.85041C5.69893 7.79451 5.68701 7.7346 5.68701 7.6741C5.68701 7.61359 5.69893 7.55368 5.72209 7.49778C5.74525 7.44189 5.7792 7.3911 5.822 7.34833C5.89807 7.27217 5.99843 7.22507 6.10563 7.21522C6.21282 7.20537 6.32008 7.23338 6.40877 7.2944C6.704 7.27734 7.75136 6.72111 9.07956 5.39384C10.4068 4.06657 10.9628 3.01828 10.9799 2.72213C10.9187 2.63351 10.8906 2.52622 10.9005 2.419C10.9104 2.31177 10.9576 2.21142 11.0339 2.13547C11.0767 2.09268 11.1275 2.05873 11.1834 2.03557C11.2393 2.01241 11.2992 2.00049 11.3597 2.00049C11.4202 2.00049 11.4801 2.01241 11.536 2.03557C11.5919 2.05873 11.6427 2.09268 11.6855 2.13547C12.616 3.06587 10.2205 5.55586 9.73098 6.04537C9.3197 6.45664 7.49658 8.21224 6.3727 8.21224Z" fill="white"/>
<path d="M14.2816 19.4189C14.2014 19.4189 14.1226 19.3978 14.0531 19.3577C14.0005 19.3278 13.9544 19.2878 13.9173 19.24C13.8802 19.1922 13.853 19.1376 13.8371 19.0792C13.8212 19.0208 13.817 18.9599 13.8247 18.8999C13.8324 18.8399 13.8519 18.782 13.8821 18.7296C17.0793 13.1442 23.0588 9.67529 29.4866 9.67529C33.2381 9.67529 36.8321 10.8207 39.8817 12.9877C39.9312 13.0227 39.9732 13.0671 40.0054 13.1183C40.0376 13.1696 40.0594 13.2267 40.0695 13.2864C40.0796 13.3461 40.0779 13.4072 40.0643 13.4662C40.0507 13.5252 40.0257 13.581 39.9905 13.6303C39.9193 13.7293 39.8119 13.7963 39.6915 13.8165C39.5712 13.8367 39.4478 13.8086 39.3481 13.7382C36.4559 11.683 33.0456 10.5968 29.4866 10.5968C23.3882 10.5968 17.7156 13.8885 14.6821 19.1869C14.6417 19.2574 14.5834 19.316 14.5131 19.3568C14.4428 19.3976 14.3629 19.419 14.2816 19.4189ZM22.5755 44.1937C22.513 44.1939 22.4511 44.1811 22.3938 44.1561C19.164 42.7699 16.412 40.4666 14.4788 37.5314C12.5456 34.5962 11.5161 31.1583 11.5181 27.6437C11.5181 25.8727 11.7754 24.1225 12.2821 22.4425C12.355 22.1995 12.6123 22.0618 12.8562 22.1347C12.9141 22.1521 12.968 22.1808 13.0149 22.2191C13.0617 22.2574 13.1005 22.3046 13.1291 22.3579C13.1577 22.4112 13.1755 22.4696 13.1814 22.5299C13.1874 22.5901 13.1814 22.6509 13.1638 22.7088C12.6833 24.3025 12.4395 25.9626 12.4395 27.6436C12.4376 30.978 13.4142 34.2398 15.2482 37.0245C17.0823 39.8093 19.6931 41.9948 22.7572 43.31C22.8695 43.3581 22.9581 43.4488 23.0035 43.5623C23.0489 43.6757 23.0474 43.8025 22.9993 43.9148C22.9636 43.9976 22.9045 44.0681 22.8292 44.1177C22.7538 44.1672 22.6657 44.1937 22.5755 44.1937ZM29.4864 45.612C28.0556 45.6125 26.6298 45.4427 25.2391 45.1063C25.1204 45.0772 25.018 45.0023 24.9545 44.8978C24.8909 44.7934 24.8713 44.6681 24.9 44.5492C24.9603 44.3018 25.2059 44.1561 25.4569 44.21C26.7763 44.5296 28.129 44.6909 29.4864 44.6905C38.8863 44.6905 46.5334 37.0437 46.5334 27.6437C46.5334 23.1228 44.7805 18.8628 41.5968 15.6486C41.5109 15.5617 41.463 15.4444 41.4635 15.3223C41.464 15.2001 41.5129 15.0832 41.5994 14.997C41.7811 14.8171 42.0719 14.8207 42.2518 15.0006C45.6063 18.3886 47.4547 22.8788 47.4547 27.6437C47.4548 37.5512 39.3938 45.612 29.4864 45.612Z" fill="white" stroke="white" stroke-width="1.5"/>
<path d="M34.4502 41.1307C34.3529 41.1307 34.2532 41.1262 34.1523 41.1172C33.1903 41.0354 32.52 40.2604 32.161 38.8145C31.9233 37.8553 31.8477 36.8789 31.7749 35.935C31.6948 34.8993 31.6192 33.922 31.3492 32.951C31.1928 32.3806 30.9417 31.9738 30.5818 31.7066C30.5332 31.6706 30.4921 31.6253 30.461 31.5734C30.4299 31.5215 30.4093 31.464 30.4005 31.4042C30.3916 31.3443 30.3946 31.2833 30.4094 31.2246C30.4241 31.166 30.4503 31.1108 30.4864 31.0622C30.5594 30.9644 30.6681 30.8994 30.7889 30.8815C30.9096 30.8637 31.0325 30.8943 31.1308 30.9668C31.6625 31.3619 32.0252 31.9305 32.2375 32.7053C32.5309 33.7609 32.6136 34.83 32.6937 35.8638C32.7666 36.8122 32.8358 37.7086 33.0555 38.5931C33.3092 39.6135 33.7043 40.1544 34.2307 40.1994C35.5076 40.3073 36.3804 39.4318 37.2335 38.4428C37.4711 38.1666 37.7284 37.902 37.9867 37.6375C38.5069 37.1039 38.9982 36.6 39.3292 35.9979C39.7071 35.3069 39.8511 34.5393 40.0032 33.7266C40.1697 32.8385 40.3417 31.9206 40.8393 31.064L41.0282 30.7392C42.5265 28.1666 42.9764 27.0885 43.0475 26.6566C40.5999 26.7862 39.1682 25.8413 38.6409 24.892C38.343 24.3566 38.3268 23.8166 38.5968 23.4477C39.1448 22.7017 40.293 23.0095 41.4026 23.3074C42.0856 23.491 43.0214 23.7411 43.3302 23.5351C43.359 23.5162 43.4335 23.4658 43.4615 23.2517C43.556 22.539 45.2397 21.7183 46.0271 21.6167C46.2782 21.5789 46.5103 21.7624 46.5436 22.0145C46.5591 22.1358 46.5258 22.2583 46.451 22.3552C46.3763 22.452 46.2662 22.5152 46.1449 22.5309C45.5034 22.6137 44.4864 23.2256 44.3533 23.446C44.3219 23.7862 44.1427 24.0993 43.844 24.3008C43.188 24.74 42.2052 24.4773 41.1641 24.1973C40.5469 24.0327 39.5156 23.7546 39.3392 23.994C39.3176 24.0281 39.3059 24.2126 39.4707 24.4861C39.8946 25.1889 41.0913 25.8899 43.1825 25.7243C43.475 25.7018 43.7153 25.8179 43.8548 26.0411C44.2381 26.6521 43.7441 27.9065 41.8247 31.2027L41.6367 31.5257C41.2181 32.2465 41.0679 33.0483 40.9087 33.8967C40.7503 34.7444 40.5865 35.621 40.1376 36.4406C39.7461 37.1534 39.1874 37.7265 38.6466 38.2809C38.4018 38.532 38.1571 38.7821 37.9321 39.044C37.0544 40.0608 35.9962 41.1307 34.4502 41.1307ZM27.1829 31.2053H27.1695C24.6634 31.136 23.0472 29.5018 22.9519 26.9408C22.9302 26.3469 22.96 25.7782 23.0409 25.2491C23.0497 25.1892 23.0703 25.1316 23.1015 25.0796C23.1327 25.0277 23.1739 24.9825 23.2227 24.9466C23.2714 24.9107 23.3269 24.8848 23.3857 24.8705C23.4446 24.8561 23.5057 24.8535 23.5655 24.8629C23.6253 24.872 23.6827 24.8928 23.7345 24.9241C23.7863 24.9554 23.8314 24.9966 23.8672 25.0453C23.9031 25.094 23.929 25.1493 23.9434 25.2081C23.9579 25.2668 23.9607 25.3278 23.9516 25.3876C23.8795 25.8601 23.8535 26.3711 23.8724 26.9066C23.9497 28.9654 25.1916 30.2289 27.1947 30.2838C27.2562 30.2831 27.3172 30.2947 27.3741 30.3179C27.431 30.3411 27.4827 30.3755 27.5261 30.419C27.5696 30.4625 27.6039 30.5142 27.627 30.5712C27.6502 30.6281 27.6617 30.6891 27.6609 30.7506C27.6601 30.812 27.647 30.8727 27.6225 30.9291C27.5979 30.9854 27.5623 31.0363 27.5177 31.0786C27.4732 31.121 27.4206 31.154 27.3631 31.1758C27.3056 31.1976 27.2444 31.2076 27.1829 31.2053ZM25.3392 22.374C25.206 22.374 25.0737 22.3164 24.9829 22.2058C24.9056 22.1112 24.8689 21.9898 24.8808 21.8682C24.8928 21.7466 24.9524 21.6347 25.0467 21.557C26.5054 20.3628 28.207 20.1991 28.6282 20.2737C30.8095 20.6525 32.037 20.944 32.4859 21.188C32.6097 21.257 32.7388 21.316 32.872 21.3644C32.9288 21.3853 32.9811 21.4171 33.0256 21.4582C33.0702 21.4993 33.1062 21.5487 33.1316 21.6037C33.157 21.6587 33.1713 21.7182 33.1737 21.7787C33.1761 21.8393 33.1665 21.8997 33.1455 21.9565C33.0583 22.1958 32.7928 22.3173 32.5544 22.2301C32.3779 22.1654 32.2068 22.0872 32.0424 21.9961C31.8488 21.8908 31.1236 21.6425 28.4663 21.1809C28.3044 21.1584 26.8746 21.2502 25.631 22.2697C25.5487 22.3372 25.4456 22.3741 25.3392 22.374ZM34.5537 19.9292C34.5022 19.9292 34.4512 19.9207 34.4025 19.9041C32.7927 19.3462 30.353 18.8404 29.2463 18.7613C29.0817 18.7405 28.8154 18.7982 28.5517 18.8459C27.876 18.9664 27.0345 19.1176 26.5441 18.5822C26.0915 18.0783 26.1725 17.3143 26.7582 16.5332C28.2484 14.5716 30.4359 13.705 32.5515 12.8673C33.2768 12.5802 34.0264 12.2833 34.7255 11.9485C34.8118 11.8207 34.9955 11.4788 35.1097 11.0873C35.1808 10.8434 35.4364 10.7057 35.6811 10.7732C35.7983 10.8076 35.8971 10.8871 35.9558 10.9942C36.0145 11.1013 36.0284 11.2273 35.9943 11.3446C35.8899 11.7046 35.5516 12.5521 35.2277 12.7285C34.4547 13.1047 33.66 13.4197 32.8907 13.7238C30.8004 14.5517 28.8262 15.3336 27.4934 17.0884C27.2567 17.4043 27.0877 17.8083 27.2262 17.9631C27.3711 18.1206 28.0081 18.0072 28.3888 17.9389C28.7244 17.8794 29.0448 17.82 29.3129 17.8417C30.4755 17.9254 33.0294 18.4527 34.7039 19.0331C34.8195 19.0731 34.9145 19.1574 34.968 19.2674C35.0215 19.3774 35.0292 19.5041 34.9893 19.6198C34.9576 19.7101 34.8987 19.7884 34.8207 19.8438C34.7427 19.8992 34.6494 19.9291 34.5537 19.9292ZM17.109 40.2902L16.948 39.8583L16.8778 39.403L16.948 39.8592L16.5359 39.6576C16.7311 39.1708 17.7155 34.937 16.148 31.6615C15.3067 29.9032 13.8579 28.7001 11.844 28.0845L12.1131 27.2028C16.7563 28.6218 17.8407 32.52 17.9333 35.5408C17.9739 36.8437 17.6957 40.0706 17.109 40.2902ZM26.2615 39.6225C24.991 39.6225 23.9579 38.5895 23.9579 37.3188C23.9579 36.0484 24.9908 35.0153 26.2615 35.0153C27.5313 35.0153 28.5652 36.0484 28.5652 37.3188C28.5652 38.5895 27.5312 39.6225 26.2615 39.6225ZM26.2615 35.9367C25.4994 35.9367 24.8794 36.5568 24.8794 37.3188C24.8794 38.0811 25.4994 38.7011 26.2615 38.7011C27.0237 38.7011 27.6438 38.0811 27.6438 37.3188C27.6437 36.5568 27.0237 35.9367 26.2615 35.9367Z" fill="white"/>
<path d="M17.9684 23.958C16.6979 23.958 15.6648 22.9249 15.6648 21.6544C15.6648 20.3838 16.6979 19.3508 17.9684 19.3508C19.2382 19.3508 20.2721 20.3838 20.2721 21.6544C20.272 22.9249 19.2381 23.958 17.9684 23.958ZM17.9684 20.2721C17.2063 20.2721 16.5862 20.8921 16.5862 21.6542C16.5862 22.4164 17.2062 23.0365 17.9684 23.0365C18.7307 23.0365 19.3506 22.4164 19.3506 21.6542C19.3506 20.8921 18.7306 20.2721 17.9684 20.2721Z" fill="white"/>
<path d="M31.79 28.5651C30.5194 28.5651 29.4863 27.532 29.4863 26.2614C29.4863 24.9908 30.5194 23.9578 31.79 23.9578C33.0597 23.9578 34.0935 24.9908 34.0935 26.2614C34.0935 27.532 33.0597 28.5651 31.79 28.5651ZM31.79 24.8793C31.0278 24.8793 30.4077 25.4994 30.4077 26.2615C30.4077 27.0237 31.0278 27.6438 31.79 27.6438C32.5521 27.6438 33.1721 27.0238 33.1721 26.2615C33.1721 25.4994 32.5521 24.8793 31.79 24.8793Z" fill="white"/>
<path d="M23.497 46.0728C23.4277 46.0728 23.3593 46.0572 23.2968 46.0271C23.2344 45.997 23.1795 45.9532 23.1364 45.8989C23.0932 45.8447 23.0628 45.7814 23.0475 45.7138C23.0322 45.6462 23.0323 45.576 23.0479 45.5085C23.5627 43.2759 24.2223 41.0227 25.006 38.8135C25.0906 38.5733 25.3534 38.4446 25.5945 38.5337C25.6515 38.5538 25.7041 38.5849 25.749 38.6253C25.794 38.6658 25.8306 38.7147 25.8566 38.7693C25.8826 38.8239 25.8975 38.8831 25.9006 38.9435C25.9037 39.0039 25.8948 39.0643 25.8744 39.1213C25.1023 41.298 24.4526 43.517 23.946 45.7154C23.9225 45.8169 23.8653 45.9075 23.7838 45.9724C23.7023 46.0373 23.6012 46.0726 23.497 46.0728Z" fill="white"/>
<path d="M26.7689 36.0089C26.7074 36.0087 26.6466 35.9965 26.5898 35.9729C26.4774 35.9252 26.3885 35.8348 26.3426 35.7216C26.2967 35.6084 26.2976 35.4816 26.3451 35.3691C27.468 32.7082 28.7962 30.0627 30.2928 27.5062C30.3545 27.4009 30.4556 27.3244 30.5736 27.2935C30.6917 27.2627 30.8173 27.2799 30.9227 27.3415C31.028 27.4034 31.1046 27.5045 31.1357 27.6227C31.1667 27.7409 31.1497 27.8666 31.0884 27.9723C29.6116 30.4936 28.3014 33.1034 27.1938 35.7272C27.1585 35.8108 27.0994 35.8821 27.0238 35.9322C26.9483 35.9823 26.8596 36.0089 26.7689 36.0089Z" fill="white"/>
<path d="M32.6281 25.0819C32.5418 25.0819 32.4535 25.0577 32.3753 25.0064C32.2734 24.9391 32.2023 24.8342 32.1777 24.7146C32.1531 24.595 32.1769 24.4705 32.2439 24.3684C36.9709 17.184 41.5745 13.0581 41.6204 13.0168C41.7122 12.9388 41.831 12.8999 41.9511 12.9084C42.0713 12.9169 42.1834 12.972 42.2634 13.0621C42.3434 13.1522 42.3849 13.2701 42.3791 13.3904C42.3733 13.5107 42.3206 13.624 42.2323 13.706C42.1872 13.7456 37.6691 17.7985 33.0133 24.8741C32.9715 24.9381 32.9143 24.9906 32.8471 25.0269C32.7798 25.0632 32.7045 25.0821 32.6281 25.0819Z" fill="white"/>
<path d="M16.1487 21.8198C16.119 21.8198 16.0884 21.8171 16.0578 21.8108C14.8034 21.5597 13.5643 21.3509 12.3775 21.189C12.2564 21.1725 12.1468 21.1087 12.0727 21.0116C11.9986 20.9144 11.9661 20.7918 11.9824 20.6707C12.0175 20.4186 12.2496 20.2343 12.5016 20.2766C13.7074 20.4403 14.9654 20.6527 16.2388 20.9074C16.3585 20.9313 16.4639 21.0018 16.5317 21.1034C16.5995 21.2049 16.6243 21.3293 16.6005 21.4491C16.5795 21.5535 16.5231 21.6475 16.4407 21.7151C16.3584 21.7826 16.2552 21.8196 16.1487 21.8198Z" fill="white"/>
<path d="M30.0967 26.014C30.04 26.014 29.9815 26.0032 29.9257 25.9807C28.0442 25.2275 24.2035 23.7895 19.6233 22.6241C19.5647 22.6093 19.5095 22.583 19.4611 22.5469C19.4126 22.5107 19.3717 22.4653 19.3408 22.4133C19.3099 22.3613 19.2895 22.3038 19.2809 22.2439C19.2722 22.184 19.2754 22.1231 19.2904 22.0645C19.3049 22.0056 19.3311 21.9502 19.3672 21.9014C19.4034 21.8527 19.4489 21.8117 19.501 21.7807C19.5532 21.7498 19.611 21.7295 19.6711 21.721C19.7312 21.7126 19.7923 21.7161 19.851 21.7315C24.4817 22.9103 28.3655 24.3636 30.2686 25.1258C30.382 25.1712 30.4726 25.2597 30.5207 25.3719C30.5688 25.4841 30.5704 25.6108 30.5251 25.7242C30.4907 25.8096 30.4315 25.8828 30.3552 25.9345C30.2788 25.9861 30.1889 26.0138 30.0967 26.014Z" fill="white"/>
</svg>
